# xmcd
#
# Track frame offsets:
# 150
# 10402
# 23730
# 34037
# 44777
# 55150
# 65437
# 74717
# 85235
# 99365
# 108865
# 117785
#
# Disc length: 1717 seconds
#
#
# Revision: 0
# Processed by: cddbd v1.5.1PL0 Copyright (c) Steve Scherf et al.
# Submitted via: FreeRIP 2.942 
#
DISCID=9e06b30c
DTITLE=Charlie Moore - Gospel Time
DYEAR=1900
DGENRE=Gospel
TTITLE0=Where The Soul Of A Man Never Dies
TTITLE1=Amazing Grace
TTITLE2=Waiting Fo The Boys To Come Home
TTITLE3=My Main Trial Is Yet To Come
TTITLE4=Leaning On The Everlasting Arms
TTITLE5=A Beautiful Home
TTITLE6=I'll Fly Away
TTITLE7=Wayfarin' Stranger
TTITLE8=Stranger In The Tavern
TTITLE9=Over In The Gloryland
TTITLE10=When The Saints Go Marching In
TTITLE11=Old Log Cabin For Sale
EXTD=CrossCut Records
EXTT0=
EXTT1=
EXTT2=
EXTT3=
EXTT4=
EXTT5=
EXTT6=
EXTT7=
EXTT8=
EXTT9=
EXTT10=
EXTT11=
PLAYORDER=
